<svg width="64" height="64" viewBox="0 0 64 64" fill="none" xmlns="http://www.w3.org/2000/svg">
<path d="M53.1 38.6H45.6V42.4H53.1C54.1 42.4 55 43.2 55 44.3C55 45.4 54.2 46.2 53.1 46.2H6.30002C5.30002 46.2 4.40002 47 4.40002 48.1C4.40002 49.1 5.20002 50 6.30002 50H53.2C56.3 50 58.8 47.5 58.8 44.4C58.8 41.1 56.2 38.6 53.1 38.6V38.6ZM54.5 25.7L50.8 25.4C50.8 25.3 53.1 11.6 53.6 8.80001C53.9 7.20001 54.5 2.70001 60.2 2.70001V6.50001C57.9 6.50001 57.6 7.40001 57.4 9.10001C56.8 11.9 54.5 25.5 54.5 25.7Z" fill="#62727A"/>
<path d="M54.7 12.3H4.00001C2.10001 12.3 1.80001 14.1 2.10001 15.1L7.80001 40.5C8.10001 41.5 9.10001 42.3 10.2 42.3H50C51 42.3 52 41.5 52.2 40.4L56.4 14.1C56.5 13.2 55.7 12.3 54.7 12.3V12.3ZM6.90001 20.8L5.90001 17C5.80001 16.5 6.10001 16.1 6.60001 16.1H13.7C14.2 16.1 14.7 16.5 14.7 17L15.1 20.8C15.2 21.3 14.8 21.7 14.3 21.7H8.00001C7.50001 21.7 7.00001 21.3 6.90001 20.8ZM10.1 30.1C9.60001 30.1 9.10001 29.7 8.90001 29.2L8.20001 26.3C8.10001 25.8 8.40001 25.4 8.90001 25.4H14.6C15.1 25.4 15.6 25.8 15.6 26.3L15.9 29.1C16 29.6 15.6 30 15.1 30C15.2 30.1 10.1 30.1 10.1 30.1V30.1ZM16.1 38.6H12.2C11.7 38.6 11.2 38.2 11 37.7L10.3 34.8C10.2 34.3 10.5 33.9 11 33.9H15.5C16 33.9 16.5 34.3 16.5 34.8L16.8 37.6C17 38.1 16.6 38.6 16.1 38.6ZM27.6 37.6C27.6 38.1 27.2 38.5 26.7 38.5H21.8C21.3 38.5 20.8 38.1 20.8 37.6L20.5 34.8C20.4 34.3 20.8 33.9 21.3 33.9H26.7C27.2 33.9 27.6 34.3 27.6 34.8V37.6ZM27.6 29.2C27.6 29.7 27.2 30.1 26.7 30.1H20.9C20.4 30.1 19.9 29.7 19.9 29.2L19.6 26.4C19.5 25.9 19.9 25.5 20.4 25.5H26.7C27.2 25.5 27.6 25.9 27.6 26.4V29.2ZM27.6 20.8C27.6 21.3 27.2 21.7 26.7 21.7H20C19.5 21.7 19 21.3 19 20.8L18.5 17C18.4 16.5 18.8 16.1 19.3 16.1H26.6C27.1 16.1 27.5 16.5 27.5 17C27.6 17 27.6 20.8 27.6 20.8ZM37.8 37.6C37.7 38.1 37.3 38.5 36.8 38.5H32.4C31.9 38.5 31.5 38.1 31.5 37.6V34.8C31.5 34.3 31.9 33.9 32.4 33.9H37.3C37.8 33.9 38.2 34.3 38.1 34.8L37.8 37.6ZM38.7 29.2C38.6 29.7 38.2 30.1 37.7 30.1H32.4C31.9 30.1 31.5 29.7 31.5 29.2V26.4C31.5 25.9 31.9 25.5 32.4 25.5H38.2C38.7 25.5 39.1 25.9 39 26.4L38.7 29.2ZM39.6 20.8C39.5 21.3 39.1 21.7 38.6 21.7H32.4C31.9 21.7 31.5 21.3 31.5 20.8V17C31.5 16.5 31.9 16.1 32.4 16.1H39.2C39.7 16.1 40.1 16.5 40 17L39.6 20.8V20.8ZM48.3 37.6C48.2 38.1 47.7 38.5 47.2 38.5H42.4C41.9 38.5 41.5 38.1 41.6 37.6L41.9 34.8C42 34.3 42.4 33.9 42.9 33.9H48C48.5 33.9 48.9 34.3 48.8 34.8L48.3 37.6V37.6ZM49.6 29.2C49.5 29.7 49 30.1 48.5 30.1H43.2C42.7 30.1 42.3 29.7 42.4 29.2L42.7 26.4C42.8 25.9 43.2 25.5 43.7 25.5H49.2C49.7 25.5 50.1 25.9 50 26.4L49.6 29.2ZM50.9 20.8C50.8 21.3 50.3 21.7 49.8 21.7H44.1C43.6 21.7 43.2 21.3 43.3 20.8L43.7 17C43.8 16.5 44.2 16.1 44.7 16.1H50.6C51.1 16.1 51.5 16.5 51.4 17L50.9 20.8" fill="#01ADFF"/>
<path d="M12.3 62C15.3928 62 17.9 59.4928 17.9 56.4C17.9 53.3072 15.3928 50.8 12.3 50.8C9.20722 50.8 6.70001 53.3072 6.70001 56.4C6.70001 59.4928 9.20722 62 12.3 62Z" fill="#62727A"/>
<path d="M12.3 59.2C13.8464 59.2 15.1 57.9464 15.1 56.4C15.1 54.8536 13.8464 53.6 12.3 53.6C10.7536 53.6 9.5 54.8536 9.5 56.4C9.5 57.9464 10.7536 59.2 12.3 59.2Z" fill="white"/>
<path d="M46.1 62C49.1928 62 51.7 59.4928 51.7 56.4C51.7 53.3072 49.1928 50.8 46.1 50.8C43.0072 50.8 40.5 53.3072 40.5 56.4C40.5 59.4928 43.0072 62 46.1 62Z" fill="#62727A"/>
<path d="M48.9 56.4C48.9 58 47.6 59.2 46.1 59.2C44.5 59.2 43.3 57.9 43.3 56.4C43.3 54.8 44.6 53.6 46.1 53.6C47.6 53.6 48.9 54.8 48.9 56.4Z" fill="white"/>
<path d="M61.1 2H58.3V7.6H61.1C61.6 7.6 62 7.2 62 6.7V2.9C62 2.4 61.6 2 61.1 2Z" fill="#62727A"/>
<path d="M12.3 48.9C8.19999 48.9 4.79999 52.3 4.79999 56.4H19.8C19.8 52.2 16.5 48.9 12.3 48.9ZM46.1 48.9C42 48.9 38.6 52.3 38.6 56.4H53.6C53.6 52.2 50.2 48.9 46.1 48.9Z" fill="#01ADFF"/>
</svg>
